<svg width="44" height="44" viewBox="0 0 44 44" fill="none" xmlns="http://www.w3.org/2000/svg">
<circle cx="22" cy="22" r="22" fill="#1B5C72"/>
<path d="M27.4355 27.7656V30H16.8438V28.0879L21.9248 22.5986C22.4548 21.9971 22.8737 21.4743 23.1816 21.0303C23.4896 20.5863 23.708 20.1852 23.8369 19.8271C23.973 19.4619 24.041 19.1146 24.041 18.7852C24.041 18.3053 23.9551 17.8864 23.7832 17.5283C23.6113 17.1631 23.3607 16.8802 23.0312 16.6797C22.709 16.4792 22.3115 16.3789 21.8389 16.3789C21.3161 16.3789 20.8685 16.5007 20.4961 16.7441C20.1309 16.9805 19.8516 17.3099 19.6582 17.7324C19.472 18.1549 19.3789 18.6383 19.3789 19.1826H16.5322C16.5322 18.2588 16.7471 17.4173 17.1768 16.6582C17.6064 15.8919 18.2223 15.2796 19.0244 14.8213C19.8265 14.363 20.779 14.1338 21.8818 14.1338C22.9561 14.1338 23.8656 14.3128 24.6104 14.6709C25.3551 15.0218 25.9209 15.5231 26.3076 16.1748C26.6943 16.8265 26.8877 17.6035 26.8877 18.5059C26.8877 19.0072 26.8053 19.5013 26.6406 19.9883C26.4759 20.4753 26.2432 20.9587 25.9424 21.4385C25.6488 21.9111 25.2979 22.391 24.8896 22.8779C24.4814 23.3649 24.0267 23.8626 23.5254 24.3711L20.4746 27.7656H27.4355Z" fill="#46AC93"/>
</svg>
