<svg width="44" height="44" viewBox="0 0 44 44" fill="none" xmlns="http://www.w3.org/2000/svg">
<circle cx="22" cy="22" r="22" fill="#1B5C72"/>
<path d="M19.9482 20.9229H21.5488C22.1146 20.9229 22.5801 20.8262 22.9453 20.6328C23.3177 20.4323 23.5934 20.1602 23.7725 19.8164C23.9587 19.4655 24.0518 19.0609 24.0518 18.6025C24.0518 18.1514 23.9694 17.7611 23.8047 17.4316C23.64 17.0951 23.3893 16.8372 23.0527 16.6582C22.7233 16.472 22.3008 16.3789 21.7852 16.3789C21.3698 16.3789 20.9867 16.4613 20.6357 16.626C20.292 16.7907 20.0163 17.027 19.8086 17.335C19.6081 17.6357 19.5078 17.9974 19.5078 18.4199H16.6611C16.6611 17.5749 16.8831 16.8337 17.3271 16.1963C17.7783 15.5518 18.387 15.0469 19.1533 14.6816C19.9196 14.3164 20.7754 14.1338 21.7207 14.1338C22.752 14.1338 23.6543 14.3057 24.4277 14.6494C25.2083 14.986 25.8135 15.4837 26.2432 16.1426C26.68 16.8014 26.8984 17.6178 26.8984 18.5918C26.8984 19.0573 26.7874 19.5228 26.5654 19.9883C26.3506 20.4466 26.0319 20.862 25.6094 21.2344C25.194 21.5996 24.682 21.8968 24.0732 22.126C23.4717 22.348 22.7806 22.459 22 22.459H19.9482V20.9229ZM19.9482 23.1143V21.5996H22C22.8809 21.5996 23.6436 21.7035 24.2881 21.9111C24.9398 22.1117 25.4769 22.3981 25.8994 22.7705C26.3219 23.1357 26.6335 23.5618 26.834 24.0488C27.0417 24.5358 27.1455 25.0586 27.1455 25.6172C27.1455 26.3477 27.0094 26.9993 26.7373 27.5723C26.4652 28.138 26.082 28.6178 25.5879 29.0117C25.1009 29.4056 24.528 29.7064 23.8691 29.9141C23.2103 30.1146 22.4977 30.2148 21.7314 30.2148C21.0654 30.2148 20.4173 30.1253 19.7871 29.9463C19.1641 29.7601 18.6019 29.4844 18.1006 29.1191C17.5993 28.7467 17.2018 28.2812 16.9082 27.7227C16.6146 27.1569 16.4678 26.5016 16.4678 25.7568H19.3145C19.3145 26.1865 19.4183 26.5697 19.626 26.9062C19.8408 27.2428 20.1344 27.5078 20.5068 27.7012C20.8864 27.8874 21.3125 27.9805 21.7852 27.9805C22.3079 27.9805 22.7555 27.8874 23.1279 27.7012C23.5075 27.5078 23.7975 27.2357 23.998 26.8848C24.1986 26.5267 24.2988 26.1006 24.2988 25.6064C24.2988 25.0192 24.1878 24.543 23.9658 24.1777C23.7438 23.8125 23.4251 23.5439 23.0098 23.3721C22.6016 23.2002 22.1146 23.1143 21.5488 23.1143H19.9482Z" fill="#46AC93"/>
</svg>
